<svg width="224" height="30" viewBox="0 0 224 30" fill="none" xmlns="http://www.w3.org/2000/svg">
<path d="M185.078 29.0122C183.217 29.0122 181.5 28.0236 180.596 26.4333L168.224 4.67203C168.093 4.43994 167.847 4.2981 167.575 4.2981C167.166 4.2981 166.833 4.62475 166.833 5.02448V28.1525H162.443V5.02448C162.443 2.2522 164.743 0 167.575 0C169.436 0 171.153 0.988563 172.057 2.57886L184.428 24.3401C184.56 24.5722 184.806 24.7141 185.078 24.7141C185.486 24.7141 185.82 24.3874 185.82 23.9877V0.932687H190.21V23.9877C190.21 26.76 187.91 29.0122 185.078 29.0122Z" fill="#111933"/>
<path d="M34.8226 28.1525L47.3652 3.13327C48.0632 1.74069 49.512 0.855278 51.1012 0.855278C52.7124 0.855278 54.183 1.76647 54.8679 3.19774L66.831 28.1525H34.8226Z" fill="url(#paint0_linear_169_546)"/>
<path d="M87.7727 27.9809H76.7535C74.5277 27.9809 72.7146 26.2058 72.7146 24.0266V5.05052C72.7146 2.86708 74.5277 1.09197 76.7579 1.09197H87.7727C95.2315 1.09197 101.303 7.03624 101.303 14.3387V14.7298C101.303 22.0366 95.2315 27.9766 87.7727 27.9766V27.9809ZM77.1091 23.6828H87.7771C92.8169 23.6828 96.9173 19.6684 96.9173 14.7341V14.343C96.9173 9.40879 92.8169 5.39437 87.7771 5.39437H77.1091V23.6828Z" fill="#111933"/>
<path d="M114.704 0.932601H110.314V28.1525H114.704V0.932601Z" fill="#111933"/>
<path d="M211.324 2.30789H206.934V28.1524H211.324V2.30789Z" fill="#111933"/>
<path d="M155.038 28.1526H150.257L140.612 6.19365C140.397 5.70796 139.91 5.3942 139.37 5.3942C138.83 5.3942 138.347 5.70796 138.132 6.19365L128.487 28.1526H123.71L134.097 4.4959C135.006 2.42851 137.078 1.0961 139.37 1.0961C141.661 1.0961 143.738 2.42851 144.647 4.4959L155.038 28.1526Z" fill="#111933"/>
<path d="M223.03 1.0961H195.228V5.3942H223.03V1.0961Z" fill="#111933"/>
<path d="M4.39012 27.6841H0V4.58177C0 2.40264 1.81312 0.627522 4.0433 0.627522H19.1102C24.3344 0.627522 28.5884 4.78808 28.5884 9.90712C28.5884 15.0262 24.3388 19.1867 19.1102 19.1867H4.39012V27.6841ZM4.39012 14.8886H19.1102C21.9155 14.8886 24.1983 12.6536 24.1983 9.90712C24.1983 7.16063 21.9155 4.92562 19.1102 4.92562H4.39012V14.8886Z" fill="#111933"/>
<path d="M28.5883 27.684H24.1982V24.1682C24.1982 21.4217 21.9155 19.1867 19.1102 19.1867V14.8886C24.3344 14.8886 28.5883 19.0491 28.5883 24.1682V27.684Z" fill="#111933"/>
<defs>
<linearGradient id="paint0_linear_169_546" x1="50.829" y1="-0.197756" x2="50.829" y2="28.9176" gradientUnits="userSpaceOnUse">
<stop offset="0.01" stop-color="#FD3A76"/>
<stop offset="0.53" stop-color="#FF719E"/>
<stop offset="1" stop-color="#FF719E" stop-opacity="0"/>
</linearGradient>
</defs>
</svg>
