<svg width="185" height="97" viewBox="0 0 185 97" fill="none" xmlns="http://www.w3.org/2000/svg">
<path d="M170.126 16.6998C170.111 30.009 170.115 43.3219 170.111 56.6311C170.111 56.9148 170.062 57.1985 170.032 57.5163H150.318V46.2652C150.62 46.2463 150.953 46.2085 151.283 46.2047C153.446 46.2009 155.61 46.1782 157.774 46.216C158.516 46.2274 158.826 46.042 158.819 45.1908C158.788 39.3798 158.788 33.5689 158.819 27.758C158.822 26.9635 158.565 26.7517 157.843 26.7933C156.81 26.85 155.769 26.85 154.737 26.7895C154.078 26.7517 153.806 27.0354 153.575 27.6256C151.211 33.6938 148.82 39.7544 146.436 45.815C144.995 49.4733 143.561 53.1392 142.086 56.7824C141.953 57.1115 141.511 57.5201 141.208 57.5239C137.727 57.5769 134.247 57.5579 130.763 57.5542C130.645 57.5504 130.524 57.5088 130.131 57.4293C133.15 50.177 136.135 43.0079 139.184 35.6761H130.835V15.8335H141.651V29.328C141.757 29.3583 141.862 29.3923 141.968 29.4226C142.146 29.1313 142.373 28.8589 142.494 28.5449C144.004 24.565 145.509 20.5813 146.981 16.5863C147.204 15.9772 147.488 15.7389 148.131 15.7427C155.16 15.7654 162.186 15.7654 169.215 15.7427C169.918 15.7427 170.126 15.9848 170.126 16.6998Z" fill="black"/>
<path d="M30.4714 46.2009V57.4861H13.9087V15.8486H25.1031V16.9457C25.1031 26.2977 25.1182 35.6421 25.0879 44.9979C25.0842 45.921 25.3225 46.235 26.2418 46.2236C27.6529 46.2123 29.064 46.2009 30.4714 46.2009Z" fill="black"/>
<path d="M50.8282 15.8259V57.4861H33.8758V46.1971C35.5707 46.1971 37.258 46.2085 38.949 46.2236C39.857 46.2274 40.1294 45.9474 40.1218 45.0054C40.0878 39.3269 40.1067 33.6446 40.0953 27.9623C40.0953 27.5234 40.311 26.9408 39.5808 26.8046C38.8999 26.6873 38.6502 27.0808 38.4421 27.6596C37.6741 29.7441 36.8797 31.8287 36.0587 33.8905C35.9528 34.1667 35.635 34.5412 35.4118 34.5412C32.5025 34.5828 29.5857 34.5677 26.4873 34.5677C26.5705 33.9964 26.5554 33.4743 26.7294 33.0317C28.8442 27.5196 30.9931 22.0265 33.1116 16.5182C33.3121 16.0037 33.5353 15.7389 34.1217 15.7427C39.4863 15.7654 44.8508 15.754 50.2191 15.7616C50.3969 15.7616 50.5823 15.7994 50.8282 15.8259Z" fill="black"/>
<path d="M65.121 15.7088C65.5826 15.7088 65.9495 15.7088 66.3165 15.7088C72.4036 15.7088 78.4907 15.7239 84.5778 15.6936C85.4063 15.6898 85.7128 15.8752 85.709 16.8172C85.6711 24.9662 85.6976 33.1151 85.6674 41.2678C85.6674 41.805 85.4669 42.4217 85.168 42.8605C81.9599 47.5441 78.7063 52.1936 75.4869 56.8696C75.1161 57.4106 74.6962 57.5808 74.072 57.5732C70.8412 57.543 67.6103 57.5732 64.3757 57.5467C63.9104 57.5467 63.063 57.4257 63.0478 57.2857C62.976 56.6085 63.0743 55.8973 63.2256 55.2201C63.2975 54.9023 63.6153 54.6413 63.8234 54.3575C67.1336 49.7913 70.4515 45.2288 73.7391 40.6436C74.0152 40.2577 74.2157 39.7129 74.2195 39.24C74.2573 35.6347 74.2195 32.0331 74.2573 28.4278C74.2649 27.603 73.9925 27.3874 73.2283 27.3912C67.1412 27.4176 61.0541 27.3912 54.967 27.4252C54.0666 27.429 53.7904 27.1793 53.798 26.2297C53.8358 20.1918 53.8321 16.1779 53.798 10.1399C53.7942 9.24712 54.0401 8.96716 54.9103 8.9823C57.986 9.03148 61.0617 9.02769 64.1336 8.9823C64.9356 8.97095 65.1513 9.25847 65.1399 10.0492C65.1021 12.5725 65.1248 13.0681 65.1248 15.7088H65.121Z" fill="black"/>
<path d="M126.931 30.8263C126.923 34.5678 126.923 38.3018 126.908 42.0434C126.908 42.6222 126.727 43.2729 126.428 43.7534C123.708 48.1494 120.931 52.5114 118.192 56.8961C117.885 57.3803 117.541 57.577 116.974 57.5695C113.834 57.543 110.694 57.5619 107.561 57.5619C106.313 57.5619 105.897 56.8469 106.487 55.6665C106.767 55.1218 107.126 54.63 107.455 54.1154C109.998 50.1393 112.555 46.1708 115.078 42.1796C115.317 41.8012 115.491 41.2867 115.495 40.8328C115.517 37.4998 115.502 34.1668 115.517 30.8263H126.931Z" fill="black"/>
<path d="M126.95 16.912C126.934 20.4153 126.927 23.9147 126.927 27.4141H114.582C106.547 27.4179 98.5192 27.4179 90.4837 27.4141C89.6489 27.4141 89.2315 26.998 89.2315 26.1657C89.2315 23.0445 89.258 19.9272 89.2088 16.8137C89.1975 15.9322 89.4926 15.7166 90.2908 15.7203C96.2266 15.7468 102.155 15.7317 108.083 15.7317C114.011 15.7317 119.879 15.7544 125.781 15.7166C126.673 15.7128 126.95 15.9587 126.946 16.912H126.95Z" fill="black"/>
<path d="M101.209 64.4208H90.0938V34.5943H101.209V64.4208Z" fill="black"/>
<path d="M35.465 61.8697H13.8945V87.2497H39.2745V61.8697H35.4686H35.465ZM35.465 83.4438H17.7005V65.6792H35.465V83.4438Z" fill="black"/>
<path d="M166.054 83.7563C164.674 83.7563 163.298 83.7563 161.918 83.7563C160.955 83.7563 160.692 83.4832 160.682 82.5416C160.667 81.4778 160.646 80.4176 160.613 79.3538C160.595 78.7644 160.243 78.5416 159.762 78.8219C158.5 79.5586 157.26 80.3277 155.999 81.0681C155.578 81.3161 155.424 81.6718 155.406 82.1355C155.359 83.4544 155.291 84.777 155.248 86.0959C155.233 86.52 155.057 86.8506 154.716 87.0735C153.993 87.5478 152.958 87.0519 152.944 86.1822C152.912 84.2738 152.937 82.3619 152.948 80.4499C152.948 80.0366 153.253 79.8174 153.562 79.6269C154.863 78.8183 156.175 78.0241 157.472 77.2046C158.274 76.6979 158.288 76.5578 157.763 75.7851C157.192 74.9441 156.635 74.0924 156.038 73.2694C155.884 73.0537 155.618 72.9207 155.402 72.7482C155.33 72.9962 155.255 73.2406 155.186 73.4886C155.172 73.5425 155.183 73.6036 155.179 73.6611C155.143 74.5811 155.039 74.6889 154.123 74.6925C151.851 74.6997 151.183 74.7033 148.912 74.7069C148.243 74.7069 147.729 74.1966 147.726 73.5533C147.726 72.874 148.225 72.3493 148.908 72.3457C150.446 72.3313 150.381 72.3313 151.92 72.3242C152.541 72.3206 152.674 72.2163 152.735 71.5874C152.793 70.9872 152.811 70.3835 152.847 69.7797C152.883 69.1364 153.109 68.9136 153.756 68.8884C155.219 68.8309 156.355 68.1337 157.228 67.0124C157.652 66.4661 158.105 66.1786 158.82 66.211C160.038 66.2613 161.26 66.2505 162.482 66.2217C163.219 66.2038 163.794 66.4446 164.225 67.0447C164.958 68.069 165.717 69.0789 166.439 70.1103C166.734 70.5344 166.712 71.0232 166.468 71.458C166.241 71.8641 165.842 72.1229 165.386 71.9648C165.059 71.8534 164.743 71.5982 164.52 71.3286C163.938 70.6206 163.424 69.8552 162.841 69.1472C162.68 68.9495 162.374 68.7734 162.13 68.7626C161.257 68.7159 160.38 68.7303 159.503 68.7554C159.018 68.7698 158.87 69.104 159.14 69.5173C159.941 70.7393 160.768 71.9432 161.54 73.1831C162.496 74.7141 163.136 76.3529 163.1 78.2002C163.086 78.9764 163.1 79.7527 163.1 80.529C163.1 81.0537 163.262 81.2298 163.79 81.2298C165.903 81.2334 167.463 81.219 169.573 81.2514C169.932 81.2586 170.335 81.4023 170.633 81.6072C171.064 81.9019 171.215 82.387 171.061 82.9081C170.906 83.4257 170.374 83.803 169.814 83.803C168.477 83.803 167.693 83.7886 166.36 83.7779C166.259 83.7779 166.159 83.7779 166.058 83.7779C166.058 83.7707 166.058 83.7635 166.058 83.7599L166.054 83.7563Z" fill="black"/>
<path d="M156.387 64.8741C156.308 66.2146 155.481 67.3503 154.18 67.5947C153.217 67.7743 152.466 67.3215 151.909 66.5812C151.104 65.5138 151.208 63.4042 152.577 62.5201C154.011 61.5929 155.568 62.4554 156.067 63.7312C156.211 64.0978 156.283 64.4931 156.387 64.8741Z" fill="black"/>
<path d="M60.0278 80.9029V87.2497L41.1455 74.8185L59.9667 61.8697V68.177H145.013V80.9029H60.0278Z" fill="black"/>
<path d="M28.3131 71.6773C28.2772 71.8929 28.2125 72.105 28.2125 72.3206C28.2017 73.2083 28.2125 74.096 28.2125 74.9837C28.2125 75.1382 28.2413 75.3323 28.1622 75.4365C28.0256 75.6162 27.8136 75.857 27.6339 75.8534C27.4542 75.8534 27.2494 75.609 27.1056 75.4293C27.0337 75.3395 27.0553 75.1598 27.0553 75.0232C27.0553 73.7941 27.0517 72.5614 27.0553 71.3323C27.0553 70.2685 27.6303 69.6252 28.7013 69.5857C29.7902 69.5425 30.8828 69.5425 31.9681 69.5857C33.1325 69.6324 33.6501 70.193 33.668 71.3646C33.6896 72.6261 33.6788 73.8875 33.6716 75.149C33.6716 75.6557 33.4704 75.9037 33.1038 75.9073C32.748 75.9073 32.4964 75.6054 32.4928 75.1166C32.482 74.1355 32.4928 73.1544 32.482 72.1732C32.482 71.99 32.3958 71.8067 32.3491 71.6234C32.2808 71.6306 32.2125 71.6378 32.1478 71.6414C32.1227 71.8426 32.0759 72.0439 32.0759 72.2451C32.0723 75.1885 32.0759 78.1319 32.0723 81.0753C32.0723 81.37 32.0723 81.6683 32.0508 81.963C32.0184 82.4086 31.7094 82.7177 31.314 82.7177C30.9079 82.7177 30.6456 82.4266 30.642 81.9378C30.6384 80.1948 30.642 78.4482 30.642 76.7051C30.642 76.565 30.6707 76.414 30.624 76.2883C30.5845 76.1804 30.4587 76.0331 30.376 76.0331C30.279 76.0331 30.1496 76.1696 30.1065 76.2739C30.0562 76.3961 30.0813 76.5506 30.0813 76.6908C30.0813 78.2793 30.0813 79.8678 30.0813 81.4563C30.0813 81.6755 30.0885 81.8947 30.0598 82.1103C30.0023 82.4985 29.7507 82.7357 29.3662 82.7429C28.978 82.7501 28.7372 82.4985 28.651 82.1247C28.615 81.9594 28.633 81.7833 28.633 81.6108C28.633 78.5272 28.6402 75.4437 28.633 72.3601C28.633 72.1301 28.5827 71.9037 28.5539 71.6737C28.4713 71.6737 28.3886 71.6737 28.3095 71.6737L28.3131 71.6773Z" fill="black"/>
<path d="M20.7406 71.6452C20.701 71.8392 20.6291 72.0333 20.6291 72.2274C20.6184 73.1294 20.6255 74.0351 20.6219 74.9372C20.6219 75.0917 20.6687 75.2965 20.5896 75.3936C20.4279 75.5912 20.2123 75.832 19.9894 75.868C19.6768 75.9183 19.4971 75.6488 19.4971 75.3217C19.4935 74.7467 19.4935 74.1681 19.4899 73.5931C19.4899 72.7665 19.4863 71.9435 19.4899 71.1169C19.4935 70.3154 19.993 69.6685 20.7981 69.629C22.1026 69.5679 23.4108 69.5823 24.719 69.6326C25.4054 69.6613 25.9014 70.1717 25.984 70.8617C26.0595 71.4906 26.0451 72.1339 26.0523 72.7701C26.0631 73.5643 26.0631 74.3585 26.0523 75.1528C26.0451 75.6703 25.8546 75.9075 25.4845 75.9075C25.1143 75.9075 24.8627 75.6128 24.8555 75.1312C24.8448 74.1501 24.8555 73.169 24.8484 72.1878C24.8484 72.0046 24.7909 71.8213 24.7585 71.638C24.6902 71.638 24.6219 71.6308 24.5537 71.6272C24.5141 71.8428 24.4423 72.0585 24.4423 72.2741C24.4315 75.4044 24.4351 78.5382 24.4135 81.6685C24.4135 81.9416 24.3344 82.2687 24.1727 82.4771C23.8349 82.9156 23.2024 82.7575 23.0442 82.222C22.9867 82.0315 22.9795 81.823 22.9831 81.6218C22.9903 79.9542 23.0047 78.2867 23.0191 76.6227C23.0191 76.4825 23.037 76.328 22.9867 76.2094C22.9472 76.1231 22.8106 76.0405 22.71 76.0333C22.6417 76.0297 22.5195 76.1411 22.498 76.2238C22.4584 76.3711 22.4692 76.5328 22.4656 76.6874C22.4656 78.3837 22.4728 80.0836 22.4512 81.7799C22.4512 82.0387 22.3578 82.3478 22.1925 82.531C22.0631 82.6748 21.7217 82.7611 21.542 82.6928C21.3371 82.6137 21.1754 82.3549 21.0604 82.1393C20.9885 82.0027 21.0388 81.8051 21.0388 81.6326C21.0388 78.531 21.0424 75.4331 21.0388 72.3316C21.0388 72.1052 20.9813 71.8788 20.949 71.6524C20.8771 71.6524 20.8088 71.6524 20.737 71.6488L20.7406 71.6452Z" fill="black"/>
<path d="M22.7463 66.3765C23.5478 66.3693 24.245 67.009 24.2629 67.7673C24.2809 68.4753 23.5334 69.2228 22.7894 69.2372C22.0491 69.2516 21.2836 68.5328 21.2764 67.814C21.2692 67.0593 21.9629 66.3801 22.7499 66.3729L22.7463 66.3765Z" fill="black"/>
<path d="M28.9097 67.8142C28.9025 67.0164 29.5423 66.3839 30.3653 66.3767C31.1919 66.3659 31.828 66.9804 31.8316 67.7891C31.8316 68.5474 31.1307 69.2446 30.3688 69.2374C29.6357 69.2302 28.9169 68.5294 28.9097 67.8142Z" fill="black"/>
<path d="M176.946 7.09245V89.9214H7.70356V7.09245H176.946ZM180.498 3.84369H4.15137V93.1702H180.498V3.84369Z" fill="black"/>
<path d="M8.61035 7.53363L175.694 87.3279" stroke="black" stroke-width="7.01768" stroke-miterlimit="10" stroke-linecap="round"/>
<path d="M175.694 7.53363L8.61035 87.3279" stroke="black" stroke-width="7.01768" stroke-miterlimit="10" stroke-linecap="round"/>
</svg>
